<svg xmlns="http://www.w3.org/2000/svg" width="5" height="9" viewBox="0 0 5 9"><g><g><path d="M1.021 8.996a.972.972 0 0 1-.703-.306 1.189 1.189 0 0 1-.036-1.576L2.565 4.49.284 1.886A1.188 1.188 0 0 1 .316.311a.96.96 0 0 1 1.443.035l2.953 3.372c.377.43.378 1.107.003 1.539L1.76 8.65a.978.978 0 0 1-.74.346z"/><path fill="#fff" d="M1.021 8.996a.972.972 0 0 1-.703-.306 1.189 1.189 0 0 1-.036-1.576L2.565 4.49.284 1.886A1.188 1.188 0 0 1 .316.311a.96.96 0 0 1 1.443.035l2.953 3.372c.377.43.378 1.107.003 1.539L1.76 8.65a.978.978 0 0 1-.74.346z"/></g></g></svg>