<svg xmlns="http://www.w3.org/2000/svg" width="14" height="10" viewBox="0 0 14 10">
  <defs>
    <style>
      .cls-1 {
        fill: #435270;
        fill-rule: evenodd;
      }
    </style>
  </defs>
  <path id="Forma_1" data-name="Forma 1" class="cls-1" d="M1537.81,984.522l-4.17-4.324a0.633,0.633,0,0,0-.92,0,0.7,0.7,0,0,0,0,.955l3.06,3.171h-11.13a0.676,0.676,0,0,0,0,1.351h11.13l-3.06,3.171a0.7,0.7,0,0,0,0,.956,0.652,0.652,0,0,0,.46.2,0.619,0.619,0,0,0,.46-0.2l4.17-4.324A0.7,0.7,0,0,0,1537.81,984.522Z" transform="translate(-1524 -980)"/>
</svg>
