<svg xmlns="http://www.w3.org/2000/svg" width="17" height="23" viewBox="0 0 17 23"><g><g><path d="M17 8.625c0 6.363-7.842 13.926-8.176 14.245a.47.47 0 0 1-.648 0C7.842 22.55 0 14.988 0 8.625 0 3.869 3.813 0 8.5 0 13.187 0 17 3.87 17 8.625zm-3.778 0c0-2.642-2.118-4.792-4.722-4.792-2.604 0-4.722 2.15-4.722 4.792s2.118 4.792 4.722 4.792c2.604 0 4.722-2.15 4.722-4.792z"/><path fill="#fff" d="M17 8.625c0 6.363-7.842 13.926-8.176 14.245a.47.47 0 0 1-.648 0C7.842 22.55 0 14.988 0 8.625 0 3.869 3.813 0 8.5 0 13.187 0 17 3.87 17 8.625zm-3.778 0c0-2.642-2.118-4.792-4.722-4.792-2.604 0-4.722 2.15-4.722 4.792s2.118 4.792 4.722 4.792c2.604 0 4.722-2.15 4.722-4.792z"/></g></g></svg>