<svg xmlns="http://www.w3.org/2000/svg" width="15" height="15" viewBox="0 0 15 15"><g><g><path d="M15 7.5c0 4.135-3.365 7.5-7.5 7.5S0 11.635 0 7.5 3.365 0 7.5 0 15 3.365 15 7.5zm-3.308-3.045c-.301-.301-.771-.301-1.072 0L6.335 8.74 4.323 6.898a.744.744 0 0 0-1.052.038c-.264.3-.245.77.056 1.053L5.865 10.3c.3.282.751.263 1.033-.02l4.794-4.755c.3-.3.3-.77 0-1.071z"/><path fill="#727c98" d="M15 7.5c0 4.135-3.365 7.5-7.5 7.5S0 11.635 0 7.5 3.365 0 7.5 0 15 3.365 15 7.5zm-3.308-3.045c-.301-.301-.771-.301-1.072 0L6.335 8.74 4.323 6.898a.744.744 0 0 0-1.052.038c-.264.3-.245.77.056 1.053L5.865 10.3c.3.282.751.263 1.033-.02l4.794-4.755c.3-.3.3-.77 0-1.071z"/></g></g></svg>