<svg xmlns="http://www.w3.org/2000/svg" width="15" height="15" viewBox="0 0 15 15"><g><g><path d="M15 7.5c0 4.135-3.365 7.5-7.5 7.5C3.364 15 0 11.634 0 7.5 0 3.362 3.364 0 7.5 0 11.635 0 15 3.363 15 7.5zm-1.286 0A6.222 6.222 0 0 0 7.5 1.284a6.222 6.222 0 0 0-6.214 6.214A6.221 6.221 0 0 0 7.5 13.714a6.221 6.221 0 0 0 6.214-6.215zm-3.312-1.993L8.409 7.5l1.993 1.993a.642.642 0 1 1-.909.909L7.5 8.409l-1.993 1.993a.64.64 0 0 1-.91 0 .642.642 0 0 1 0-.909L6.592 7.5 4.598 5.507a.643.643 0 0 1 .909-.91L7.5 6.591l1.993-1.994a.643.643 0 1 1 .909.91z"/><path fill="#f01d23" d="M15 7.5c0 4.135-3.365 7.5-7.5 7.5C3.364 15 0 11.634 0 7.5 0 3.362 3.364 0 7.5 0 11.635 0 15 3.363 15 7.5zm-1.286 0A6.222 6.222 0 0 0 7.5 1.284a6.222 6.222 0 0 0-6.214 6.214A6.221 6.221 0 0 0 7.5 13.714a6.221 6.221 0 0 0 6.214-6.215zm-3.312-1.993L8.409 7.5l1.993 1.993a.642.642 0 1 1-.909.909L7.5 8.409l-1.993 1.993a.64.64 0 0 1-.91 0 .642.642 0 0 1 0-.909L6.592 7.5 4.598 5.507a.643.643 0 0 1 .909-.91L7.5 6.591l1.993-1.994a.643.643 0 1 1 .909.91z"/></g></g></svg>