<svg xmlns="http://www.w3.org/2000/svg" viewBox="0 0 30 30"><defs><style>.cls-1{fill:#0079bf;}</style></defs><title>Asset 1</title><g id="Layer_2" data-name="Layer 2"><g id="Capa_1" data-name="Capa 1"><path class="cls-1" d="M19.69,3.52a.59.59,0,1,0-.59-.59A.59.59,0,0,0,19.69,3.52Z"/><path class="cls-1" d="M12.66,2.34a.59.59,0,1,0,.58.59A.59.59,0,0,0,12.66,2.34Z"/><path class="cls-1" d="M10,11.72a.59.59,0,1,0,0-1.17.59.59,0,0,0,0,1.17Z"/><path class="cls-1" d="M23.55,17.93a.59.59,0,1,0,.59.59A.58.58,0,0,0,23.55,17.93Z"/><path class="cls-1" d="M6.45,30a6.42,6.42,0,0,0,3.7-1.17H27.07a1.76,1.76,0,0,0,1.76-1.76V21.34A1.75,1.75,0,0,0,30,19.69V17.34a1.75,1.75,0,0,0-1.17-1.65V10A1.76,1.76,0,0,0,27.07,8.2H22.62V.59A.59.59,0,0,0,22,0H10.31a.58.58,0,0,0-.58.59V8.2H4.1A1.76,1.76,0,0,0,2.34,10v8.62A6.45,6.45,0,0,0,6.45,30Zm20.62-2.34H11.42a7.26,7.26,0,0,0,.77-1.18H25.9a.58.58,0,0,0,.58-.58V21.45h1.18v5.62A.6.6,0,0,1,27.07,27.66Zm1.76-8a.58.58,0,0,1-.59.58H22.38a1.76,1.76,0,0,1,0-3.51h5.86a.58.58,0,0,1,.59.58ZM10.9,1.17H21.45v7H19.07c-.19-2-1.4-3.51-2.9-3.51s-2.7,1.5-2.9,3.51H10.9Zm7,7H14.45c.17-1.32.89-2.34,1.72-2.34S17.72,6.88,17.89,8.2ZM4.1,9.38h23a.59.59,0,0,1,.59.58v5.63H26.48V11.13a.58.58,0,0,0-.58-.58H12.3a.59.59,0,0,0,0,1.17h13v3.87H22.38a2.93,2.93,0,0,0,0,5.86h2.93v3.86H12.65a6.46,6.46,0,0,0-6.2-8.2,5.68,5.68,0,0,0-.59,0V11.72H7.62a.59.59,0,0,0,0-1.17H5.27a.58.58,0,0,0-.58.58v6.22a6.62,6.62,0,0,0-1.17.46V10A.58.58,0,0,1,4.1,9.38Zm2.35,8.9a5.28,5.28,0,1,1-5.28,5.27A5.28,5.28,0,0,1,6.45,18.28Z"/><path class="cls-1" d="M6.45,25.31a1,1,0,0,1-.77-.44.58.58,0,0,0-.89.75,2.36,2.36,0,0,0,1.07.77v.68a.59.59,0,1,0,1.17,0v-.69A1.76,1.76,0,0,0,6.45,23a.59.59,0,1,1,0-1.17.94.94,0,0,1,.63.3.58.58,0,1,0,.81-.84A2.18,2.18,0,0,0,7,20.72V20a.59.59,0,1,0-1.17,0v.69a1.76,1.76,0,0,0,.59,3.41.59.59,0,0,1,0,1.17Z"/></g></g></svg>