<svg xmlns="http://www.w3.org/2000/svg" viewBox="0 0 30 30"><defs><style>.cls-1{fill:#0079bf;}</style></defs><title>Asset 5</title><g id="Layer_2" data-name="Layer 2"><g id="Layer_6" data-name="Layer 6"><path class="cls-1" d="M29.41,0h-.72a.59.59,0,0,0-.59.59.58.58,0,0,0,.59.59h.13v22.7H1.18V1.18H24a.58.58,0,0,0,.59-.59A.59.59,0,0,0,24,0H.59A.59.59,0,0,0,0,.59V24.47a.59.59,0,0,0,.59.59H12.21A6.77,6.77,0,0,1,11,28.82H6a.59.59,0,0,0-.59.59A.58.58,0,0,0,6,30H23.79a.58.58,0,0,0,.58-.59.59.59,0,0,0-.58-.59h-4.7a6.69,6.69,0,0,1-1.22-3.76H29.41a.59.59,0,0,0,.59-.59V.59A.59.59,0,0,0,29.41,0ZM17.65,28.81H12.43a9,9,0,0,0,1-3.75h3.3a9,9,0,0,0,1,3.75Z"/><path class="cls-1" d="M2.12,2.76v17.1a.58.58,0,0,0,.59.59H27.37a.58.58,0,0,0,.59-.59V2.76a.58.58,0,0,0-.59-.59H2.71a.58.58,0,0,0-.59.59Zm1.18.58H26.78V19.27H3.3Z"/><path class="cls-1" d="M21.59,10.7H18.77V7.89a.59.59,0,0,0-.59-.59H14.77a.59.59,0,0,0-.59.59V10.7H12V7.89a.58.58,0,0,0-.59-.59H8a.58.58,0,0,0-.59.59v3.4a.58.58,0,0,0,.59.59h2.82V14.7a.59.59,0,0,0,.58.59h3.41a.59.59,0,0,0,.59-.59V11.88h2.23V14.7a.59.59,0,0,0,.59.59h3.41a.6.6,0,0,0,.59-.59V11.29a.6.6,0,0,0-.59-.59Zm-13-2.22h2.24V10.7H8.54Zm5.64,5.63H12V11.88h2.23Zm1.18-5.63h2.23V10.7H15.36ZM21,14.11H18.77V11.88H21Z"/><path class="cls-1" d="M25.83.82a.58.58,0,0,0,.55.37.6.6,0,0,0,.22,0,.59.59,0,0,0,.32-.77h0A.59.59,0,0,0,26.15,0a.6.6,0,0,0-.33.77Z"/><path class="cls-1" d="M2.48,22a.6.6,0,0,0-.32.77v0a.61.61,0,0,0,.55.36.57.57,0,0,0,.22,0,.6.6,0,0,0,.33-.77h0A.6.6,0,0,0,2.48,22Z"/><path class="cls-1" d="M4,22a.6.6,0,0,0-.32.77h0a.61.61,0,0,0,.55.37.57.57,0,0,0,.22,0,.6.6,0,0,0,.33-.77h0A.6.6,0,0,0,4,22Z"/><path class="cls-1" d="M5.54,22a.6.6,0,0,0-.32.77h0a.61.61,0,0,0,.55.37.57.57,0,0,0,.22,0,.58.58,0,0,0,.32-.77h0A.6.6,0,0,0,5.54,22Z"/><path class="cls-1" d="M13.89,21.94a.58.58,0,0,0-.59.59.59.59,0,0,0,.59.59h2.2a.59.59,0,0,0,.59-.59.58.58,0,0,0-.59-.59Z"/></g></g></svg>