<svg xmlns="http://www.w3.org/2000/svg" viewBox="0 0 30 30"><defs><style>.cls-1{fill:#0079bf;}</style></defs><title>Asset 6</title><g id="Layer_2" data-name="Layer 2"><g id="Layer_7" data-name="Layer 7"><path class="cls-1" d="M8.09,2.84h3.52a.62.62,0,0,0,0-1.24H8.09a.62.62,0,0,0,0,1.24Z"/><path class="cls-1" d="M10.42,27.42a.61.61,0,0,0-1.14.46v0a.63.63,0,0,0,.58.39.68.68,0,0,0,.23-.05.62.62,0,0,0,.34-.8Z"/><path class="cls-1" d="M15.25,25.73a.62.62,0,1,0-1.15.46v0a.62.62,0,0,0,.57.38.59.59,0,0,0,.23,0,.62.62,0,0,0,.34-.81Z"/><path class="cls-1" d="M26.66,8.85A.62.62,0,0,0,26.14,10a4.54,4.54,0,1,1-5.74,6.53.64.64,0,0,0-.15-.25,4.61,4.61,0,0,1-.54-2.16,4.55,4.55,0,0,1,2.38-4,.62.62,0,0,0,.24-.84A.6.6,0,0,0,21.5,9a5.81,5.81,0,0,0-1.74,1.44v-8A2.47,2.47,0,0,0,17.3,0H2.46A2.47,2.47,0,0,0,0,2.47V27.53A2.47,2.47,0,0,0,2.46,30H17.3a2.47,2.47,0,0,0,2.46-2.47v-9.8A5.75,5.75,0,0,0,30,14.1a5.82,5.82,0,0,0-3.34-5.25ZM12,12.52H18.7a5.58,5.58,0,0,0-.22,1.58,5.82,5.82,0,0,0,.34,2h-.63l-1.46-1.2a.6.6,0,0,0-.78,0l-1.46,1.2H13.3l-1.22-1h0l-.24-.19a.6.6,0,0,0-.78,0L9.6,16.07H8.81V12.52Zm4.64-1.24H12.31V9.88a.61.61,0,0,0-.62-.61H8.19a.61.61,0,0,0-.61.61v8.61a.61.61,0,0,0,.61.62h3.5a.62.62,0,0,0,.62-.62V16.85l.38.32a.62.62,0,0,0,.39.14h1.63a.62.62,0,0,0,.39-.14l1.24-1,.26.21v7.16H3.11V6.22H16.6Zm-7.79,0V10.5h2.26v.78Zm0,6h1a.63.63,0,0,0,.4-.14l.85-.71v1.41H8.81ZM17.24,1.24a1.29,1.29,0,0,1,1.29,1.29V3.2H1.23V2.53A1.29,1.29,0,0,1,2.52,1.24ZM2.52,28.76a1.29,1.29,0,0,1-1.29-1.29v-.89h11a.62.62,0,0,0,0-1.23h-11V4.43h17.3v6.85h-.7V5.6A.62.62,0,0,0,17.21,5H2.49a.61.61,0,0,0-.61.62V24.13a.61.61,0,0,0,.61.61H17.21a.61.61,0,0,0,.62-.61V17.29l.14,0h.56v8H17.14a.62.62,0,0,0,0,1.23h1.39v.89a1.29,1.29,0,0,1-1.29,1.29Z"/><path class="cls-1" d="M23.82,14.1a2,2,0,1,0,2-2,2,2,0,0,0-2,2Zm2-.78a.78.78,0,1,1-.78.78.78.78,0,0,1,.78-.78Z"/><path class="cls-1" d="M23.48,9.16a.63.63,0,0,0,.57.39.64.64,0,0,0,.23-.05.6.6,0,0,0,.34-.8v0a.61.61,0,0,0-.8-.34.63.63,0,0,0-.34.81Z"/></g></g></svg>