<svg xmlns="http://www.w3.org/2000/svg" viewBox="0 0 30 30"><defs><style>.cls-1{fill:#0079bf;}</style></defs><title>Asset 3</title><g id="Layer_2" data-name="Layer 2"><g id="Layer_8" data-name="Layer 8"><path class="cls-1" d="M9.53,18.05a.5.5,0,0,0,.5-.5.5.5,0,0,0-1,0A.5.5,0,0,0,9.53,18.05Z"/><path class="cls-1" d="M28.51,0h-27A1.49,1.49,0,0,0,0,1.49V15.56a1.49,1.49,0,0,0,1.49,1.49H7a9,9,0,1,0,17,4,9,9,0,0,0-.93-4h5.49A1.49,1.49,0,0,0,30,15.56V1.49A1.49,1.49,0,0,0,28.51,0ZM15,29a8,8,0,0,1-3.74-15h0a8,8,0,0,1,7.48,0h0A8,8,0,0,1,15,29Zm4.1-15.93a8.91,8.91,0,0,0-8.2,0H3.7a1,1,0,0,1,0-2H26.3a1,1,0,0,1,1,1c0,.53-.72,1-1.29,1ZM29,15.56a.51.51,0,0,1-.5.5H22.44a8.63,8.63,0,0,0-1.82-2H26a2.26,2.26,0,0,0,2.29-2,2,2,0,0,0-2-2H3.7a2,2,0,0,0,0,4H9.38a8.63,8.63,0,0,0-1.82,2H1.49a.51.51,0,0,1-.5-.5V1.49A.5.5,0,0,1,1.49,1h27a.5.5,0,0,1,.5.49Z"/><path class="cls-1" d="M15,14.07a6.93,6.93,0,0,0-4.46,1.62.5.5,0,0,0-.07.7.49.49,0,0,0,.7.06A6,6,0,1,1,9,21a6.06,6.06,0,0,1,.2-1.53.5.5,0,0,0-.36-.61.49.49,0,0,0-.6.36A6.59,6.59,0,0,0,8,21a7,7,0,1,0,7-7Z"/><path class="cls-1" d="M14,23a.5.5,0,0,1-.5-.5A.5.5,0,0,0,13,22a.51.51,0,0,0-.5.5A1.5,1.5,0,0,0,14,24h.49v.5a.5.5,0,0,0,1,0V24H16a1.5,1.5,0,0,0,1.5-1.49v-1A1.5,1.5,0,0,0,16,20H15.5v-2H16a.5.5,0,0,1,.5.5A.49.49,0,0,0,17,19a.5.5,0,0,0,.5-.49,1.5,1.5,0,0,0-1.5-1.5H15.5v-.5a.5.5,0,0,0-1,0v.5H14a1.5,1.5,0,0,0-1.5,1.5v1A1.5,1.5,0,0,0,14,21h.49v2Zm0-3a.5.5,0,0,1-.5-.5v-1a.5.5,0,0,1,.5-.5h.49v2Zm1.49,1H16a.49.49,0,0,1,.5.49v1a.5.5,0,0,1-.5.5H15.5Z"/><path class="cls-1" d="M12.46,4.15H10.12a.6.6,0,0,0,0,1.19h2.34a.6.6,0,0,0,0-1.19Z"/><path class="cls-1" d="M17.15,4.15H14.8a.6.6,0,0,0,0,1.19h2.35a.6.6,0,0,0,0-1.19Z"/><path class="cls-1" d="M21.83,4.15H19.49a.6.6,0,0,0,0,1.19h2.34a.6.6,0,0,0,0-1.19Z"/><path class="cls-1" d="M26.52,4.15H24.18a.6.6,0,0,0,0,1.19h2.34a.6.6,0,0,0,0-1.19Z"/></g></g></svg>