<svg xmlns="http://www.w3.org/2000/svg" viewBox="0 0 30 30"><defs><style>.cls-1{fill:#0079bf;}</style></defs><title>Asset 2</title><g id="Layer_2" data-name="Layer 2"><g id="Layer_2-2" data-name="Layer 2"><path class="cls-1" d="M15,20.93a.6.6,0,1,0,.59.6.6.6,0,0,0-.59-.6Z"/><path class="cls-1" d="M28.24,11.44H26.13V1.78A1.77,1.77,0,0,0,24.37,0H1.76A1.77,1.77,0,0,0,0,1.78v15a1.77,1.77,0,0,0,1.76,1.78H3.87v9.66A1.77,1.77,0,0,0,5.63,30H28.24A1.77,1.77,0,0,0,30,28.22v-15a1.77,1.77,0,0,0-1.76-1.78ZM1.17,4.75H25V7.12H1.17Zm.59-3.56H24.37a.58.58,0,0,1,.59.59V3.56H1.17V1.78a.58.58,0,0,1,.59-.59Zm0,16.18a.58.58,0,0,1-.59-.59V8.31H25v3.13H5.63a1.77,1.77,0,0,0-1.76,1.78v4.15ZM28.83,28.22a.58.58,0,0,1-.59.59H5.63A.58.58,0,0,1,5,28.22v-15a.58.58,0,0,1,.59-.59H28.24a.58.58,0,0,1,.59.59Z"/><path class="cls-1" d="M23.2,15a2.94,2.94,0,0,0-1.76.59A2.88,2.88,0,0,0,19.69,15a3,3,0,0,0,0,5.93,2.88,2.88,0,0,0,1.75-.59A3,3,0,1,0,23.2,15Zm-5.27,3a1.77,1.77,0,0,1,1.76-1.78,1.74,1.74,0,0,1,1.31.6h0A1.79,1.79,0,0,1,21.45,18,1.75,1.75,0,0,1,21,19.14a1.72,1.72,0,0,1-1.31.61A1.77,1.77,0,0,1,17.93,18Zm5.27,1.78a1.74,1.74,0,0,1-1-.3A3.06,3.06,0,0,0,22.62,18a3,3,0,0,0-.39-1.48,1.66,1.66,0,0,1,1-.3,1.78,1.78,0,0,1,0,3.56Z"/><path class="cls-1" d="M10.31,25.25H8a.6.6,0,0,0,0,1.19h2.34a.6.6,0,0,0,0-1.19Z"/><path class="cls-1" d="M15,25.25H12.66a.6.6,0,0,0,0,1.19H15a.6.6,0,0,0,0-1.19Z"/><path class="cls-1" d="M19.69,25.25H17.34a.6.6,0,0,0,0,1.19h2.35a.6.6,0,0,0,0-1.19Z"/><path class="cls-1" d="M24.37,25.25H22a.6.6,0,0,0,0,1.19h2.34a.6.6,0,0,0,0-1.19Z"/><path class="cls-1" d="M8,22.12h4.69a.6.6,0,0,0,0-1.19H8a.6.6,0,0,0,0,1.19Z"/></g></g></svg>