<svg xmlns="http://www.w3.org/2000/svg" viewBox="0 0 30 30"><defs><style>.cls-1{fill:#0079bf;}</style></defs><title>Asset 4</title><g id="Layer_2" data-name="Layer 2"><g id="Layer_5" data-name="Layer 5"><path class="cls-1" d="M25.61,4.39A15,15,0,1,0,30,15,14.93,14.93,0,0,0,25.61,4.39Zm3.2,10h-2a11.76,11.76,0,0,0-3.05-7.35l1.41-1.41A13.76,13.76,0,0,1,28.81,14.41ZM15.59,1.19a13.76,13.76,0,0,1,8.76,3.63L22.94,6.23a11.69,11.69,0,0,0-7.35-3.05Zm-1.18,0v2A11.69,11.69,0,0,0,7.06,6.23L5.65,4.82A13.76,13.76,0,0,1,14.41,1.19ZM4.82,5.65,6.23,7.06a11.64,11.64,0,0,0-3,6.3c0,.35-.08.7-.1,1.05h-2A13.76,13.76,0,0,1,4.82,5.65ZM9.94,24.39a.59.59,0,0,0-.79.24.58.58,0,0,0,.24.79,11.77,11.77,0,0,0,5,1.4v2a13.76,13.76,0,0,1-8.76-3.63l.61-.61a.59.59,0,0,0-.83-.83l-.61.61a13.76,13.76,0,0,1-3.63-8.76h2a11.77,11.77,0,0,0,1.4,5,.58.58,0,0,0,.79.24.59.59,0,0,0,.24-.79A10.72,10.72,0,0,1,7.46,7.46,10.66,10.66,0,0,1,22.54,22.54,10.72,10.72,0,0,1,9.94,24.39Zm5.65,4.42v-2c.35,0,.7-.05,1.05-.1a11.64,11.64,0,0,0,6.3-2.95l1.41,1.41A13.76,13.76,0,0,1,15.59,28.81Zm9.59-4.46-1.41-1.41a11.76,11.76,0,0,0,3.05-7.35h2A13.76,13.76,0,0,1,25.18,24.35Z"/><path class="cls-1" d="M6.63,22.54h0a.58.58,0,0,0,0,.82.59.59,0,0,0,.42.18.58.58,0,0,0,.41-.17h0a.59.59,0,1,0-.83-.83Z"/><path class="cls-1" d="M21.26,12.27A4.42,4.42,0,0,0,17,7.86V6.56a.59.59,0,0,0-1.17,0V7.85H14.69V6.56a.59.59,0,0,0-1.17,0V7.85H10.77a.59.59,0,1,0,0,1.17h.64V21h-.64a.59.59,0,1,0,0,1.17h2.75v1.29a.59.59,0,0,0,1.17,0V22.15h1.18v1.29a.59.59,0,0,0,1.17,0v-1.3A4.41,4.41,0,0,0,20.31,15,4.42,4.42,0,0,0,21.26,12.27Zm-2.15,3.15a3.21,3.21,0,0,1,1,2.31A3.25,3.25,0,0,1,16.84,21H12.58V9h4.26a3.25,3.25,0,0,1,3.24,3.25,3.21,3.21,0,0,1-1,2.31.58.58,0,0,0,0,.84Z"/><path class="cls-1" d="M16.74,10H14.17a.58.58,0,0,0-.59.58v3.29a.58.58,0,0,0,.59.58h2.57a2.23,2.23,0,1,0,0-4.45Zm0,3.28h-2V11.21h2a1.06,1.06,0,1,1,0,2.11Z"/><path class="cls-1" d="M16.74,15.51H14.17a.58.58,0,0,0-.59.58v3.29a.58.58,0,0,0,.59.58h2.57a2.23,2.23,0,1,0,0-4.45Zm0,3.28h-2V16.68h2a1.06,1.06,0,1,1,0,2.11Z"/></g></g></svg>