<svg xmlns="http://www.w3.org/2000/svg" width="19" height="15" viewBox="0 0 19 15"><g><g><path d="M.583 3.392C.194 2.87 0 2.385 0 1.938 0 1.383.147.922.44.552c.293-.37.712-.554 1.256-.554h15.607c.46 0 .857.167 1.193.5.336.335.504.736.504 1.205 0 .561-.173 1.098-.52 1.609a5.048 5.048 0 0 1-1.293 1.31 8637.93 8637.93 0 0 0-4.962 3.464c-.07.05-.221.158-.45.325-.23.167-.421.302-.573.405a11.14 11.14 0 0 1-.552.346 3.192 3.192 0 0 1-.61.288c-.19.064-.367.096-.53.096h-.02c-.163 0-.34-.032-.531-.096a3.199 3.199 0 0 1-.61-.288c-.215-.128-.399-.243-.551-.346a21.975 21.975 0 0 1-.573-.405l-.45-.325c-.643-.455-1.57-1.103-2.778-1.945a492.01 492.01 0 0 1-2.173-1.518c-.439-.299-.852-.709-1.24-1.23zM19 4.836v8.46c0 .47-.166.87-.498 1.205a1.63 1.63 0 0 1-1.198.5H1.696c-.466 0-.866-.166-1.198-.5A1.645 1.645 0 0 1 0 13.297V4.836a5.63 5.63 0 0 0 1.07.927c2.56 1.748 4.316 2.973 5.27 3.676.403.299.73.531.981.698.251.167.585.337 1.002.512.417.174.806.26 1.166.26h.022c.36 0 .749-.086 1.166-.26a6.054 6.054 0 0 0 1.002-.512c.25-.167.578-.4.98-.698 1.202-.874 2.962-2.1 5.28-3.676A5.857 5.857 0 0 0 19 4.836z"/><path fill="#fff" d="M.583 3.392C.194 2.87 0 2.385 0 1.938 0 1.383.147.922.44.552c.293-.37.712-.554 1.256-.554h15.607c.46 0 .857.167 1.193.5.336.335.504.736.504 1.205 0 .561-.173 1.098-.52 1.609a5.048 5.048 0 0 1-1.293 1.31 8637.93 8637.93 0 0 0-4.962 3.464c-.07.05-.221.158-.45.325-.23.167-.421.302-.573.405a11.14 11.14 0 0 1-.552.346 3.192 3.192 0 0 1-.61.288c-.19.064-.367.096-.53.096h-.02c-.163 0-.34-.032-.531-.096a3.199 3.199 0 0 1-.61-.288c-.215-.128-.399-.243-.551-.346a21.975 21.975 0 0 1-.573-.405l-.45-.325c-.643-.455-1.57-1.103-2.778-1.945a492.01 492.01 0 0 1-2.173-1.518c-.439-.299-.852-.709-1.24-1.23zM19 4.836v8.46c0 .47-.166.87-.498 1.205a1.63 1.63 0 0 1-1.198.5H1.696c-.466 0-.866-.166-1.198-.5A1.645 1.645 0 0 1 0 13.297V4.836a5.63 5.63 0 0 0 1.07.927c2.56 1.748 4.316 2.973 5.27 3.676.403.299.73.531.981.698.251.167.585.337 1.002.512.417.174.806.26 1.166.26h.022c.36 0 .749-.086 1.166-.26a6.054 6.054 0 0 0 1.002-.512c.25-.167.578-.4.98-.698 1.202-.874 2.962-2.1 5.28-3.676A5.857 5.857 0 0 0 19 4.836z"/></g></g></svg>