<svg xmlns="http://www.w3.org/2000/svg" width="27" height="27" viewBox="0 0 27 27"><g><g><path d="M27 13.5C27 20.944 20.944 27 13.5 27S0 20.944 0 13.5 6.056 0 13.5 0 27 6.056 27 13.5zM7.03 10.406a6.476 6.476 0 0 0 6.469 6.469 6.476 6.476 0 0 0 6.469-6.469 6.476 6.476 0 0 0-6.47-6.469 6.476 6.476 0 0 0-6.468 6.47zm15.459 9.829C20.24 19.152 17.026 18 13.5 18c-3.525 0-6.74 1.152-8.99 2.235 2.054 2.735 5.314 4.515 8.99 4.515s6.936-1.78 8.99-4.515z"/><path fill="#d9d7d7" d="M27 13.5C27 20.944 20.944 27 13.5 27S0 20.944 0 13.5 6.056 0 13.5 0 27 6.056 27 13.5zM7.03 10.406a6.476 6.476 0 0 0 6.469 6.469 6.476 6.476 0 0 0 6.469-6.469 6.476 6.476 0 0 0-6.47-6.469 6.476 6.476 0 0 0-6.468 6.47zm15.459 9.829C20.24 19.152 17.026 18 13.5 18c-3.525 0-6.74 1.152-8.99 2.235 2.054 2.735 5.314 4.515 8.99 4.515s6.936-1.78 8.99-4.515z"/></g></g></svg>