<svg xmlns="http://www.w3.org/2000/svg" width="12" height="12" viewBox="0 0 12 12"><g><g><path d="M12 5.976C12 9.272 9.319 12 6.023 12 2.728 12 0 9.272 0 5.976 0 2.681 2.728 0 6.023 0A5.983 5.983 0 0 1 12 5.976zm-4.982 0l1.964-1.964a.704.704 0 0 0-.995-.994L6.023 4.982l-2.01-1.964a.704.704 0 0 0-.995.994l1.964 1.964L3.018 7.94a.704.704 0 0 0 .995.995l2.01-1.964 1.964 1.964a.704.704 0 0 0 .995-.995z"/><path fill="#c91515" d="M12 5.976C12 9.272 9.319 12 6.023 12 2.728 12 0 9.272 0 5.976 0 2.681 2.728 0 6.023 0A5.983 5.983 0 0 1 12 5.976zm-4.982 0l1.964-1.964a.704.704 0 0 0-.995-.994L6.023 4.982l-2.01-1.964a.704.704 0 0 0-.995.994l1.964 1.964L3.018 7.94a.704.704 0 0 0 .995.995l2.01-1.964 1.964 1.964a.704.704 0 0 0 .995-.995z"/></g></g></svg>