<svg xmlns="http://www.w3.org/2000/svg" width="9" height="6" viewBox="0 0 9 6"><g><g><path d="M8.836.829l-.79-.687a.58.58 0 0 0-.394-.141.58.58 0 0 0-.395.141L3.45 3.46 1.743 1.97a.58.58 0 0 0-.395-.142.58.58 0 0 0-.395.142l-.79.687A.439.439 0 0 0 .001 3c0 .135.054.249.162.343l2.102 1.828.79.687a.58.58 0 0 0 .394.141.581.581 0 0 0 .395-.141l.79-.687 4.202-3.656A.439.439 0 0 0 9 1.172a.44.44 0 0 0-.163-.343z"/><path fill="#f31818" d="M8.836.829l-.79-.687a.58.58 0 0 0-.394-.141.58.58 0 0 0-.395.141L3.45 3.46 1.743 1.97a.58.58 0 0 0-.395-.142.58.58 0 0 0-.395.142l-.79.687A.439.439 0 0 0 .001 3c0 .135.054.249.162.343l2.102 1.828.79.687a.58.58 0 0 0 .394.141.581.581 0 0 0 .395-.141l.79-.687 4.202-3.656A.439.439 0 0 0 9 1.172a.44.44 0 0 0-.163-.343z"/></g></g></svg>