<svg xmlns="http://www.w3.org/2000/svg" width="9" height="7" viewBox="0 0 9 7"><g><g><path d="M8.836.966l-.79-.8A.534.534 0 0 0 7.653 0a.535.535 0 0 0-.395.165L3.45 4.035 1.743 2.299a.534.534 0 0 0-.395-.166.533.533 0 0 0-.395.166l-.79.8a.549.549 0 0 0-.162.401c0 .157.054.29.162.401l2.102 2.132.79.802c.108.11.24.165.394.165a.533.533 0 0 0 .395-.165l.79-.802 4.202-4.264A.55.55 0 0 0 9 1.367a.552.552 0 0 0-.163-.401z"/><path fill="#00b033" d="M8.836.966l-.79-.8A.534.534 0 0 0 7.653 0a.535.535 0 0 0-.395.165L3.45 4.035 1.743 2.299a.534.534 0 0 0-.395-.166.533.533 0 0 0-.395.166l-.79.8a.549.549 0 0 0-.162.401c0 .157.054.29.162.401l2.102 2.132.79.802c.108.11.24.165.394.165a.533.533 0 0 0 .395-.165l.79-.802 4.202-4.264A.55.55 0 0 0 9 1.367a.552.552 0 0 0-.163-.401z"/></g></g></svg>